<svg width="32" height="32" viewBox="0 0 32 32" fill="none" xmlns="http://www.w3.org/2000/svg">
<path d="M28.89 18.07C29.87 17.16 30.5 15.86 30.5 14.41C30.5 11.9 28.65 9.82999 26.25 9.45999C25.45 5.72999 22.13 2.92999 18.16 2.92999C14.7 2.92999 11.74 5.05999 10.5 8.06999C9.63 7.58999 8.63 7.30999 7.56 7.30999C4.21 7.30999 1.5 10.02 1.5 13.37C1.5 15.27 2.37 16.96 3.73 18.07" fill="white"/>
<path d="M28.89 18.07C29.87 17.16 30.5 15.86 30.5 14.41C30.5 11.9 28.65 9.82999 26.25 9.45999C25.45 5.72999 22.13 2.92999 18.16 2.92999C14.7 2.92999 11.74 5.05999 10.5 8.06999C9.63 7.58999 8.63 7.30999 7.56 7.30999C4.21 7.30999 1.5 10.02 1.5 13.37C1.5 15.27 2.37 16.96 3.73 18.07" stroke="#666666" stroke-width="1.5" stroke-miterlimit="10" stroke-linecap="round"/>
<path d="M22.99 15H9.01001" stroke="#666666" stroke-width="1.5" stroke-miterlimit="10" stroke-linecap="round"/>
<path d="M22.77 27H5.22998" stroke="#666666" stroke-width="1.5" stroke-miterlimit="10" stroke-linecap="round"/>
<path d="M30.61 21H1.39001" stroke="#666666" stroke-width="1.5" stroke-miterlimit="10" stroke-linecap="round"/>
</svg>
